# xmcd
# 
# Track frame offsets:
#     150
#     13596
#     27595
#     43940
#     56644
#     72868
#     91058
#     103150
#     120175
#     141422
#     161617
#     188118
#     207239
#     223756
#     249513
# 
# Disc length: 3659
# 
# Revision: 1
# Processed by: cddbd v1.5.2PL0 Copyright (c) Steve Scherf et al.
# Submitted via: fre:ac v1.0.17
# 
DISCID=d80e490f
DTITLE=Chet Baker - Love Walked In 1 - 1953-55
DYEAR=1953
DGENRE=Jazz
TTITLE0=Love Walked In
TTITLE1=You Better Go Now
TTITLE2=I Married An Angel
TTITLE3=I Love You
TTITLE4=Why Shouldn't I?
TTITLE5=The Wind
TTITLE6=Trickleydidlier
TTITLE7=There's A Small Hotel
TTITLE8=These Foolish Things
TTITLE9=How About You!
TTITLE10=I'll Remember April
TTITLE11=Summertime
TTITLE12=Everything Happens To Me
TTITLE13=All The Things You Are
TTITLE14=Once In A while
EXTD=YEAR: 1953
EXTT0=
EXTT1=
EXTT2=
EXTT3=
EXTT4=
EXTT5=
EXTT6=
EXTT7=
EXTT8=
EXTT9=
EXTT10=
EXTT11=
EXTT12=
EXTT13=
EXTT14=
PLAYORDER=
